<svg width="26" height="25" viewBox="0 0 26 25" fill="none" xmlns="http://www.w3.org/2000/svg">
<path id="person" d="M13.0071 12.5602C16.4466 12.5602 19.2322 9.6977 19.2322 6.19315C19.2322 2.74211 16.4466 0 13.0071 0C9.58187 0 6.76777 2.78224 6.78198 6.2199C6.79619 9.71107 9.56765 12.5602 13.0071 12.5602ZM13.0071 10.2194C11.0458 10.2194 9.38289 8.46709 9.38289 6.2199C9.36868 4.02622 11.0316 2.34082 13.0071 2.34082C14.9969 2.34082 16.6313 3.99946 16.6313 6.19315C16.6313 8.44034 14.9827 10.2194 13.0071 10.2194ZM4.13843 25H21.8616C24.3204 25 25.5 24.2643 25.5 22.6859C25.5 19.0075 20.6251 14.1118 13.0071 14.1118C5.38914 14.1118 0.5 19.0075 0.5 22.6859C0.5 24.2643 1.67965 25 4.13843 25ZM3.69784 22.6592C3.35674 22.6592 3.22882 22.5522 3.22882 22.3114C3.22882 20.2648 6.73934 16.4526 13.0071 16.4526C19.2607 16.4526 22.7712 20.2648 22.7712 22.3114C22.7712 22.5522 22.6433 22.6592 22.3022 22.6592H3.69784Z" fill="#EDE7E0"/>
</svg>
